ffmpeg started on 2025-07-07 at 19:38:02
Report written to "D:\Convert\FFMetrics\reports\psnr_report-6.txt"
Log level: 32
Command line:
ffmpeg -hide_banner -nostdin -i "D:\\\xc0\xed\xe8\xec\xe5\\[\xd2\xee\xef-5]\\\xd1\xf2\xe0\xeb\xfc\xed\xe0\xff \xf2\xf0\xe5\xe2\xee\xe3\xe0!\\\xd2\xc2-3\\Full Metal Panic! Fumoffu [Opening & Ending]\\Full Metal Panic! Fumoffu OP_HEVC.mkv" -i "D:\\\xc0\xed\xe8\xec\xe5\\[\xd2\xee\xef-5]\\\xd1\xf2\xe0\xeb\xfc\xed\xe0\xff \xf2\xf0\xe5\xe2\xee\xe3\xe0!\\\xd2\xc2-3\\Full Metal Panic! Fumoffu [Opening & Ending]\\Full Metal Panic! Fumoffu OP.mkv" -lavfi "[0:v]settb=AVTB,setpts=PTS-STARTPTS,format=pix_fmts=yuv420p10,fps=30000/1001,scale=1440:1080:flags=bicubic[main];[1:v]settb=AVTB,setpts=PTS-STARTPTS,format=pix_fmts=yuv420p,fps=30000/1001,scale=1440:1080:flags=bicubic[ref];[main][ref]psnr=eof_action=endall:stats_file='D\\:/Convert/FFMetrics/logs/psnr_logfile-6.txt'" -f null -
[aist#0:1/aac @ 00000170ee2a7dc0] Guessed Channel Layout: 5.1
Input #0, matroska,webm, from 'D:\Аниме\[Топ-5]\Стальная тревога!\ТВ-3\Full Metal Panic! Fumoffu [Opening & Ending]\Full Metal Panic! Fumoffu OP_HEVC.mkv':
  Metadata:
    ENCODER         : Lavf61.7.100
  Duration: 00:01:31.64, start: -0.021000, bitrate: 1672 kb/s
  Stream #0:0(jpn): Video: hevc (Main 10), yuv420p10le(tv, bt709, progressive), 1440x1080 [SAR 1:1 DAR 4:3], 29.97 fps, 29.97 tbr, 1k tbn (default)
      Metadata:
        title           : Full Metal Panic? Fumoffu Eizou Tokuten - NC OP
        ENCODER         : Lavc61.19.100 libx265
        BPS             : 1477877
        DURATION        : 00:01:31.591366666
        NUMBER_OF_FRAMES: 2745
        NUMBER_OF_BYTES : 16920033
        _STATISTICS_WRITING_APP: mkvpropedit v66.0.0 ('Josie') 64-bit
        _STATISTICS_WRITING_DATE_UTC: 2025-07-07 16:30:01
        _STATISTICS_TAGS: BPS DURATION NUMBER_OF_FRAMES NUMBER_OF_BYTES
  Stream #0:1(jpn): Audio: aac (LC), 48000 Hz, 5.1, fltp (default)
      Metadata:
        title           : Original Audio
        ENCODER         : Lavc61.19.100 aac
        BPS             : 190622
        DURATION        : 00:01:31.626000000
        NUMBER_OF_FRAMES: 4296
        NUMBER_OF_BYTES : 2183252
        _STATISTICS_WRITING_APP: mkvpropedit v66.0.0 ('Josie') 64-bit
        _STATISTICS_WRITING_DATE_UTC: 2025-07-07 16:30:01
        _STATISTICS_TAGS: BPS DURATION NUMBER_OF_FRAMES NUMBER_OF_BYTES
Input #1, matroska,webm, from 'D:\Аниме\[Топ-5]\Стальная тревога!\ТВ-3\Full Metal Panic! Fumoffu [Opening & Ending]\Full Metal Panic! Fumoffu OP.mkv':
  Metadata:
    encoder         : libebml v0.7.7 + libmatroska v0.8.1
    creation_time   : 2008-12-30T05:22:25.000000Z
  Duration: 00:01:31.62, start: 0.000000, bitrate: 8341 kb/s
  Stream #1:0(jpn): Video: h264 (High), yuv420p(progressive), 1440x1080, SAR 1:1 DAR 4:3, 29.97 fps, 29.97 tbr, 1k tbn (default)
      Metadata:
        title           : Full Metal Panic? Fumoffu Eizou Tokuten - NC OP
  Stream #1:1(jpn): Audio: ac3, 48000 Hz, 5.1(side), fltp, 448 kb/s (default)
      Metadata:
        title           : Original Audio
Stream mapping:
  Stream #0:0 (hevc) -> settb:default
  Stream #1:0 (h264) -> settb:default
  psnr:default -> Stream #0:0 (wrapped_avframe)
  Stream #0:1 -> #0:1 (aac (native) -> pcm_s16le (native))
[swscaler @ 0000017080b84e80] No accelerated colorspace conversion found from yuv420p to bgr48le.
[swscaler @ 00000170fa122a80] No accelerated colorspace conversion found from yuv420p to bgr48le.
[swscaler @ 0000017080ce4640] No accelerated colorspace conversion found from yuv420p to bgr48le.
[swscaler @ 0000017080e49100] No accelerated colorspace conversion found from yuv420p to bgr48le.
[swscaler @ 0000017080f395c0] No accelerated colorspace conversion found from yuv420p to bgr48le.
[swscaler @ 00000170845b00c0] No accelerated colorspace conversion found from yuv420p to bgr48le.
[swscaler @ 000001708472a180] No accelerated colorspace conversion found from yuv420p to bgr48le.
[swscaler @ 00000170848d4100] No accelerated colorspace conversion found from yuv420p to bgr48le.
[swscaler @ 00000170fbb3f9c0] No accelerated colorspace conversion found from yuv420p to bgr48le.
[swscaler @ 0000017084a43400] No accelerated colorspace conversion found from yuv420p to bgr48le.
[swscaler @ 0000017084b64040] No accelerated colorspace conversion found from yuv420p to bgr48le.
[swscaler @ 0000017084c37040] No accelerated colorspace conversion found from yuv420p to bgr48le.
[swscaler @ 0000017084cb73c0] No accelerated colorspace conversion found from yuv420p to bgr48le.
[swscaler @ 0000017084e54b80] No accelerated colorspace conversion found from yuv420p to bgr48le.
[swscaler @ 0000017084e6eb40] No accelerated colorspace conversion found from yuv420p to bgr48le.
[swscaler @ 0000017084f3a3c0] No accelerated colorspace conversion found from yuv420p to bgr48le.
Output #0, null, to 'pipe:':
  Metadata:
    encoder         : Lavf61.7.100
  Stream #0:0: Video: wrapped_avframe, yuv420p10le(tv, bt709, progressive), 1440x1080 [SAR 1:1 DAR 4:3], q=2-31, 200 kb/s, 29.97 fps, 29.97 tbn
      Metadata:
        encoder         : Lavc61.19.100 wrapped_avframe
  Stream #0:1(jpn): Audio: pcm_s16le, 48000 Hz, 6 channels, s16, 4608 kb/s (default)
      Metadata:
        title           : Original Audio
        _STATISTICS_TAGS: BPS DURATION NUMBER_OF_FRAMES NUMBER_OF_BYTES
        BPS             : 190622
        DURATION        : 00:01:31.626000000
        NUMBER_OF_FRAMES: 4296
        NUMBER_OF_BYTES : 2183252
        _STATISTICS_WRITING_APP: mkvpropedit v66.0.0 ('Josie') 64-bit
        _STATISTICS_WRITING_DATE_UTC: 2025-07-07 16:30:01
        encoder         : Lavc61.19.100 pcm_s16le
frame=   39 fps=0.0 q=-0.0 size=N/A time=00:00:01.30 bitrate=N/A speed=2.56x    frame=   93 fps= 90 q=-0.0 size=N/A time=00:00:03.10 bitrate=N/A speed=3.01x    frame=  144 fps= 94 q=-0.0 size=N/A time=00:00:04.80 bitrate=N/A speed=3.12x    frame=  197 fps= 96 q=-0.0 size=N/A time=00:00:06.57 bitrate=N/A speed=3.19x    frame=  243 fps= 94 q=-0.0 size=N/A time=00:00:08.10 bitrate=N/A speed=3.15x    frame=  288 fps= 93 q=-0.0 size=N/A time=00:00:09.60 bitrate=N/A speed= 3.1x    frame=  355 fps= 98 q=-0.0 size=N/A time=00:00:11.84 bitrate=N/A speed=3.27x    frame=  399 fps= 96 q=-0.0 size=N/A time=00:00:13.31 bitrate=N/A speed=3.22x    frame=  456 fps= 98 q=-0.0 size=N/A time=00:00:15.21 bitrate=N/A speed=3.26x    frame=  507 fps= 98 q=-0.0 size=N/A time=00:00:16.91 bitrate=N/A speed=3.27x    frame=  545 fps= 96 q=-0.0 size=N/A time=00:00:18.18 bitrate=N/A speed= 3.2x    frame=  607 fps= 98 q=-0.0 size=N/A time=00:00:20.25 bitrate=N/A speed=3.26x    frame=  655 fps= 97 q=-0.0 size=N/A time=00:00:21.85 bitrate=N/A speed=3.25x    frame=  711 fps= 98 q=-0.0 size=N/A time=00:00:23.72 bitrate=N/A speed=3.28x    frame=  765 fps= 99 q=-0.0 size=N/A time=00:00:25.52 bitrate=N/A speed=3.29x    frame=  818 fps= 99 q=-0.0 size=N/A time=00:00:27.29 bitrate=N/A speed= 3.3x    frame=  870 fps= 99 q=-0.0 size=N/A time=00:00:29.02 bitrate=N/A speed= 3.3x    frame=  921 fps= 99 q=-0.0 size=N/A time=00:00:30.73 bitrate=N/A speed= 3.3x    frame=  969 fps= 99 q=-0.0 size=N/A time=00:00:32.33 bitrate=N/A speed=3.29x    frame= 1025 fps= 99 q=-0.0 size=N/A time=00:00:34.20 bitrate=N/A speed=3.31x    frame= 1075 fps= 99 q=-0.0 size=N/A time=00:00:35.86 bitrate=N/A speed= 3.3x    frame= 1127 fps= 99 q=-0.0 size=N/A time=00:00:37.60 bitrate=N/A speed=3.31x    frame= 1180 fps= 99 q=-0.0 size=N/A time=00:00:39.37 bitrate=N/A speed=3.31x    frame= 1232 fps= 99 q=-0.0 size=N/A time=00:00:41.10 bitrate=N/A speed=3.31x    frame= 1275 fps= 99 q=-0.0 size=N/A time=00:00:42.54 bitrate=N/A speed=3.29x    frame= 1334 fps= 99 q=-0.0 size=N/A time=00:00:44.51 bitrate=N/A speed=3.31x    frame= 1386 fps= 99 q=-0.0 size=N/A time=00:00:46.24 bitrate=N/A speed=3.31x    frame= 1432 fps= 99 q=-0.0 size=N/A time=00:00:47.78 bitrate=N/A speed= 3.3x    frame= 1473 fps= 98 q=-0.0 size=N/A time=00:00:49.14 bitrate=N/A speed=3.28x    frame= 1526 fps= 98 q=-0.0 size=N/A time=00:00:50.91 bitrate=N/A speed=3.29x    frame= 1572 fps= 98 q=-0.0 size=N/A time=00:00:52.45 bitrate=N/A speed=3.28x    frame= 1626 fps= 98 q=-0.0 size=N/A time=00:00:54.25 bitrate=N/A speed=3.28x    frame= 1677 fps= 98 q=-0.0 size=N/A time=00:00:55.95 bitrate=N/A speed=3.28x    frame= 1728 fps= 98 q=-0.0 size=N/A time=00:00:57.65 bitrate=N/A speed=3.28x    frame= 1781 fps= 99 q=-0.0 size=N/A time=00:00:59.42 bitrate=N/A speed=3.29x    frame= 1828 fps= 98 q=-0.0 size=N/A time=00:01:00.99 bitrate=N/A speed=3.28x    frame= 1876 fps= 98 q=-0.0 size=N/A time=00:01:02.59 bitrate=N/A speed=3.28x    frame= 1943 fps= 99 q=-0.0 size=N/A time=00:01:04.83 bitrate=N/A speed= 3.3x    frame= 1990 fps= 99 q=-0.0 size=N/A time=00:01:06.39 bitrate=N/A speed= 3.3x    frame= 2040 fps= 99 q=-0.0 size=N/A time=00:01:08.06 bitrate=N/A speed= 3.3x    frame= 2101 fps= 99 q=-0.0 size=N/A time=00:01:10.10 bitrate=N/A speed=3.31x    frame= 2148 fps= 99 q=-0.0 size=N/A time=00:01:11.67 bitrate=N/A speed=3.31x    frame= 2202 fps= 99 q=-0.0 size=N/A time=00:01:13.47 bitrate=N/A speed=3.31x    frame= 2252 fps= 99 q=-0.0 size=N/A time=00:01:15.14 bitrate=N/A speed=3.31x    frame= 2308 fps= 99 q=-0.0 size=N/A time=00:01:17.01 bitrate=N/A speed=3.32x    frame= 2358 fps= 99 q=-0.0 size=N/A time=00:01:18.67 bitrate=N/A speed=3.31x    frame= 2410 fps= 99 q=-0.0 size=N/A time=00:01:20.41 bitrate=N/A speed=3.31x    frame= 2460 fps= 99 q=-0.0 size=N/A time=00:01:22.08 bitrate=N/A speed=3.31x    frame= 2507 fps= 99 q=-0.0 size=N/A time=00:01:23.65 bitrate=N/A speed=3.31x    frame= 2564 fps= 99 q=-0.0 size=N/A time=00:01:25.55 bitrate=N/A speed=3.31x    frame= 2613 fps= 99 q=-0.0 size=N/A time=00:01:27.18 bitrate=N/A speed=3.31x    frame= 2668 fps= 99 q=-0.0 size=N/A time=00:01:29.02 bitrate=N/A speed=3.32x    frame= 2722 fps=100 q=-0.0 size=N/A time=00:01:30.82 bitrate=N/A speed=3.32x    [Parsed_psnr_10 @ 00000170eecaaf00] PSNR y:45.578857 u:48.807120 v:49.197129 average:46.449370 min:42.292282 max:94.796803
[out#0/null @ 00000170edb4ad40] video:1179KiB audio:51552KiB subtitle:0KiB other streams:0KiB global headers:0KiB muxing overhead: unknown
frame= 2745 fps=100 q=-0.0 Lsize=N/A time=00:01:31.59 bitrate=N/A speed=3.32x    
